<svg width="225" height="35" viewBox="0 0 225 35" fill="none" xmlns="http://www.w3.org/2000/svg">
<rect width="225" height="35" rx="17.5" fill="white"/>
<path d="M32.4785 20.9268V22H27.208V20.9268H32.4785ZM27.4746 12.0469V22H26.1553V12.0469H27.4746ZM31.7812 16.3262V17.3994H27.208V16.3262H31.7812ZM32.4102 12.0469V13.127H27.208V12.0469H32.4102ZM35.1855 16.1826V22H33.9209V14.6035H35.1172L35.1855 16.1826ZM34.8848 18.0215L34.3584 18.001C34.363 17.4951 34.4382 17.028 34.584 16.5996C34.7298 16.1667 34.9349 15.7907 35.1992 15.4717C35.4635 15.1527 35.778 14.9066 36.1426 14.7334C36.5117 14.5557 36.9196 14.4668 37.3662 14.4668C37.7308 14.4668 38.0589 14.5169 38.3506 14.6172C38.6423 14.7129 38.8906 14.8678 39.0957 15.082C39.3053 15.2962 39.4648 15.5742 39.5742 15.916C39.6836 16.2533 39.7383 16.6657 39.7383 17.1533V22H38.4668V17.1396C38.4668 16.7523 38.4098 16.4424 38.2959 16.21C38.182 15.973 38.0156 15.8021 37.7969 15.6973C37.5781 15.5879 37.3092 15.5332 36.9902 15.5332C36.6758 15.5332 36.3887 15.5993 36.1289 15.7314C35.8737 15.8636 35.6527 16.0459 35.4658 16.2783C35.2835 16.5107 35.14 16.7773 35.0352 17.0781C34.9349 17.3743 34.8848 17.6888 34.8848 18.0215ZM44.7559 14.6035V15.5742H40.7568V14.6035H44.7559ZM42.1104 12.8057H43.375V20.168C43.375 20.4186 43.4137 20.6077 43.4912 20.7354C43.5687 20.863 43.6689 20.9473 43.792 20.9883C43.915 21.0293 44.0472 21.0498 44.1885 21.0498C44.2933 21.0498 44.4027 21.0407 44.5166 21.0225C44.6351 20.9997 44.724 20.9814 44.7832 20.9678L44.79 22C44.6898 22.0319 44.5576 22.0615 44.3936 22.0889C44.234 22.1208 44.0404 22.1367 43.8125 22.1367C43.5026 22.1367 43.2178 22.0752 42.958 21.9521C42.6982 21.8291 42.4909 21.624 42.3359 21.3369C42.1855 21.0452 42.1104 20.6533 42.1104 20.1611V12.8057ZM49.3086 22.1367C48.7936 22.1367 48.3265 22.0501 47.9072 21.877C47.4925 21.6992 47.1348 21.4508 46.834 21.1318C46.5378 20.8128 46.3099 20.4346 46.1504 19.9971C45.9909 19.5596 45.9111 19.0811 45.9111 18.5615V18.2744C45.9111 17.6729 46 17.1374 46.1777 16.668C46.3555 16.194 46.597 15.793 46.9023 15.4648C47.2077 15.1367 47.554 14.8883 47.9414 14.7197C48.3288 14.5511 48.7298 14.4668 49.1445 14.4668C49.6732 14.4668 50.1289 14.5579 50.5117 14.7402C50.8991 14.9225 51.2158 15.1777 51.4619 15.5059C51.708 15.8294 51.8903 16.2122 52.0088 16.6543C52.1273 17.0918 52.1865 17.5703 52.1865 18.0898V18.6572H46.6631V17.625H50.9219V17.5293C50.9036 17.2012 50.8353 16.8822 50.7168 16.5723C50.6029 16.2624 50.4206 16.0072 50.1699 15.8066C49.9193 15.6061 49.5775 15.5059 49.1445 15.5059C48.8574 15.5059 48.5931 15.5674 48.3516 15.6904C48.11 15.8089 47.9027 15.9867 47.7295 16.2236C47.5563 16.4606 47.4219 16.75 47.3262 17.0918C47.2305 17.4336 47.1826 17.8278 47.1826 18.2744V18.5615C47.1826 18.9124 47.2305 19.2428 47.3262 19.5527C47.4264 19.8581 47.57 20.127 47.7568 20.3594C47.9482 20.5918 48.1784 20.7741 48.4473 20.9062C48.7207 21.0384 49.0306 21.1045 49.377 21.1045C49.8236 21.1045 50.2018 21.0133 50.5117 20.8311C50.8216 20.6488 51.0928 20.4049 51.3252 20.0996L52.0908 20.708C51.9313 20.9495 51.7285 21.1797 51.4824 21.3984C51.2363 21.6172 50.9333 21.7949 50.5732 21.9316C50.2178 22.0684 49.7962 22.1367 49.3086 22.1367ZM54.9277 15.7656V22H53.6631V14.6035H54.8936L54.9277 15.7656ZM57.2383 14.5625L57.2314 15.7383C57.1266 15.7155 57.0264 15.7018 56.9307 15.6973C56.8395 15.6882 56.7347 15.6836 56.6162 15.6836C56.3245 15.6836 56.0671 15.7292 55.8438 15.8203C55.6204 15.9115 55.4313 16.0391 55.2764 16.2031C55.1214 16.3672 54.9984 16.5632 54.9072 16.791C54.8206 17.0143 54.7637 17.2604 54.7363 17.5293L54.3809 17.7344C54.3809 17.2878 54.4242 16.8685 54.5107 16.4766C54.6019 16.0846 54.7409 15.7383 54.9277 15.4375C55.1146 15.1322 55.3516 14.8952 55.6387 14.7266C55.9303 14.5534 56.2767 14.4668 56.6777 14.4668C56.7689 14.4668 56.8737 14.4782 56.9922 14.501C57.1107 14.5192 57.1927 14.5397 57.2383 14.5625ZM63.958 21.2344L66.0156 14.6035H67.3691L64.4023 23.1416C64.334 23.3239 64.2428 23.5199 64.1289 23.7295C64.0195 23.9437 63.8783 24.1465 63.7051 24.3379C63.5319 24.5293 63.3223 24.6842 63.0762 24.8027C62.8346 24.9258 62.5452 24.9873 62.208 24.9873C62.1077 24.9873 61.9801 24.9736 61.8252 24.9463C61.6702 24.9189 61.5609 24.8962 61.4971 24.8779L61.4902 23.8525C61.5267 23.8571 61.5837 23.8617 61.6611 23.8662C61.7432 23.8753 61.8001 23.8799 61.832 23.8799C62.1191 23.8799 62.363 23.8411 62.5635 23.7637C62.764 23.6908 62.9326 23.5654 63.0693 23.3877C63.2106 23.2145 63.3314 22.9753 63.4316 22.6699L63.958 21.2344ZM62.4473 14.6035L64.3682 20.3457L64.6963 21.6787L63.7871 22.1436L61.0664 14.6035H62.4473ZM68.0664 18.3838V18.2266C68.0664 17.6934 68.1439 17.1989 68.2988 16.7432C68.4538 16.2829 68.6771 15.8841 68.9688 15.5469C69.2604 15.2051 69.6136 14.9408 70.0283 14.7539C70.443 14.5625 70.9079 14.4668 71.4229 14.4668C71.9424 14.4668 72.4095 14.5625 72.8242 14.7539C73.2435 14.9408 73.599 15.2051 73.8906 15.5469C74.1868 15.8841 74.4124 16.2829 74.5674 16.7432C74.7223 17.1989 74.7998 17.6934 74.7998 18.2266V18.3838C74.7998 18.917 74.7223 19.4115 74.5674 19.8672C74.4124 20.3229 74.1868 20.7217 73.8906 21.0635C73.599 21.4007 73.2458 21.665 72.8311 21.8564C72.4209 22.0433 71.9561 22.1367 71.4365 22.1367C70.917 22.1367 70.4499 22.0433 70.0352 21.8564C69.6204 21.665 69.265 21.4007 68.9688 21.0635C68.6771 20.7217 68.4538 20.3229 68.2988 19.8672C68.1439 19.4115 68.0664 18.917 68.0664 18.3838ZM69.3311 18.2266V18.3838C69.3311 18.7529 69.3743 19.1016 69.4609 19.4297C69.5475 19.7533 69.6774 20.0404 69.8506 20.291C70.0283 20.5417 70.2493 20.7399 70.5137 20.8857C70.778 21.027 71.0856 21.0977 71.4365 21.0977C71.7829 21.0977 72.0859 21.027 72.3457 20.8857C72.61 20.7399 72.8288 20.5417 73.002 20.291C73.1751 20.0404 73.305 19.7533 73.3916 19.4297C73.4827 19.1016 73.5283 18.7529 73.5283 18.3838V18.2266C73.5283 17.862 73.4827 17.5179 73.3916 17.1943C73.305 16.8662 73.1729 16.5768 72.9951 16.3262C72.8219 16.071 72.6032 15.8704 72.3389 15.7246C72.0791 15.5788 71.7738 15.5059 71.4229 15.5059C71.0765 15.5059 70.7712 15.5788 70.5068 15.7246C70.2471 15.8704 70.0283 16.071 69.8506 16.3262C69.6774 16.5768 69.5475 16.8662 69.4609 17.1943C69.3743 17.5179 69.3311 17.862 69.3311 18.2266ZM80.9111 20.291V14.6035H82.1826V22H80.9727L80.9111 20.291ZM81.1504 18.7324L81.6768 18.7188C81.6768 19.2109 81.6243 19.6667 81.5195 20.0859C81.4193 20.5007 81.2552 20.8607 81.0273 21.166C80.7995 21.4714 80.501 21.7106 80.1318 21.8838C79.7627 22.0524 79.3138 22.1367 78.7852 22.1367C78.4251 22.1367 78.0947 22.0843 77.7939 21.9795C77.4977 21.8747 77.2425 21.7129 77.0283 21.4941C76.8141 21.2754 76.6478 20.9906 76.5293 20.6396C76.4154 20.2887 76.3584 19.8672 76.3584 19.375V14.6035H77.623V19.3887C77.623 19.7214 77.6595 19.9971 77.7324 20.2158C77.8099 20.43 77.9124 20.6009 78.04 20.7285C78.1722 20.8516 78.318 20.9382 78.4775 20.9883C78.6416 21.0384 78.8102 21.0635 78.9834 21.0635C79.5212 21.0635 79.9473 20.9609 80.2617 20.7559C80.5762 20.5462 80.8018 20.266 80.9385 19.915C81.0798 19.5596 81.1504 19.1654 81.1504 18.7324ZM85.375 15.7656V22H84.1104V14.6035H85.3408L85.375 15.7656ZM87.6855 14.5625L87.6787 15.7383C87.5739 15.7155 87.4736 15.7018 87.3779 15.6973C87.2868 15.6882 87.182 15.6836 87.0635 15.6836C86.7718 15.6836 86.5143 15.7292 86.291 15.8203C86.0677 15.9115 85.8786 16.0391 85.7236 16.2031C85.5687 16.3672 85.4456 16.5632 85.3545 16.791C85.2679 17.0143 85.2109 17.2604 85.1836 17.5293L84.8281 17.7344C84.8281 17.2878 84.8714 16.8685 84.958 16.4766C85.0492 16.0846 85.1882 15.7383 85.375 15.4375C85.5618 15.1322 85.7988 14.8952 86.0859 14.7266C86.3776 14.5534 86.724 14.4668 87.125 14.4668C87.2161 14.4668 87.321 14.4782 87.4395 14.501C87.5579 14.5192 87.64 14.5397 87.6855 14.5625ZM95.3965 22.1367C94.8815 22.1367 94.4144 22.0501 93.9951 21.877C93.5804 21.6992 93.2227 21.4508 92.9219 21.1318C92.6257 20.8128 92.3978 20.4346 92.2383 19.9971C92.0788 19.5596 91.999 19.0811 91.999 18.5615V18.2744C91.999 17.6729 92.0879 17.1374 92.2656 16.668C92.4434 16.194 92.6849 15.793 92.9902 15.4648C93.2956 15.1367 93.6419 14.8883 94.0293 14.7197C94.4167 14.5511 94.8177 14.4668 95.2324 14.4668C95.7611 14.4668 96.2168 14.5579 96.5996 14.7402C96.987 14.9225 97.3037 15.1777 97.5498 15.5059C97.7959 15.8294 97.9782 16.2122 98.0967 16.6543C98.2152 17.0918 98.2744 17.5703 98.2744 18.0898V18.6572H92.751V17.625H97.0098V17.5293C96.9915 17.2012 96.9232 16.8822 96.8047 16.5723C96.6908 16.2624 96.5085 16.0072 96.2578 15.8066C96.0072 15.6061 95.6654 15.5059 95.2324 15.5059C94.9453 15.5059 94.681 15.5674 94.4395 15.6904C94.1979 15.8089 93.9906 15.9867 93.8174 16.2236C93.6442 16.4606 93.5098 16.75 93.4141 17.0918C93.3184 17.4336 93.2705 17.8278 93.2705 18.2744V18.5615C93.2705 18.9124 93.3184 19.2428 93.4141 19.5527C93.5143 19.8581 93.6579 20.127 93.8447 20.3594C94.0361 20.5918 94.2663 20.7741 94.5352 20.9062C94.8086 21.0384 95.1185 21.1045 95.4648 21.1045C95.9115 21.1045 96.2897 21.0133 96.5996 20.8311C96.9095 20.6488 97.1807 20.4049 97.4131 20.0996L98.1787 20.708C98.0192 20.9495 97.8164 21.1797 97.5703 21.3984C97.3242 21.6172 97.0212 21.7949 96.6611 21.9316C96.3057 22.0684 95.8841 22.1367 95.3965 22.1367ZM102.383 17.249V18.2881H99.0469V17.249H102.383ZM104.878 16.0732V22H103.606V14.6035H104.81L104.878 16.0732ZM104.618 18.0215L104.03 18.001C104.035 17.4951 104.101 17.028 104.229 16.5996C104.356 16.1667 104.545 15.7907 104.796 15.4717C105.047 15.1527 105.359 14.9066 105.732 14.7334C106.106 14.5557 106.539 14.4668 107.031 14.4668C107.378 14.4668 107.697 14.5169 107.988 14.6172C108.28 14.7129 108.533 14.8656 108.747 15.0752C108.961 15.2848 109.128 15.5537 109.246 15.8818C109.365 16.21 109.424 16.6064 109.424 17.0713V22H108.159V17.1328C108.159 16.7454 108.093 16.4355 107.961 16.2031C107.833 15.9707 107.651 15.8021 107.414 15.6973C107.177 15.5879 106.899 15.5332 106.58 15.5332C106.206 15.5332 105.894 15.5993 105.644 15.7314C105.393 15.8636 105.192 16.0459 105.042 16.2783C104.892 16.5107 104.782 16.7773 104.714 17.0781C104.65 17.3743 104.618 17.6888 104.618 18.0215ZM109.41 17.3242L108.562 17.584C108.567 17.1784 108.633 16.7887 108.761 16.415C108.893 16.0413 109.082 15.7087 109.328 15.417C109.579 15.1253 109.886 14.8952 110.251 14.7266C110.616 14.5534 111.033 14.4668 111.502 14.4668C111.898 14.4668 112.249 14.5192 112.555 14.624C112.865 14.7288 113.124 14.8906 113.334 15.1094C113.548 15.3236 113.71 15.5993 113.819 15.9365C113.929 16.2738 113.983 16.6748 113.983 17.1396V22H112.712V17.126C112.712 16.7113 112.646 16.39 112.514 16.1621C112.386 15.9297 112.204 15.7679 111.967 15.6768C111.734 15.5811 111.456 15.5332 111.133 15.5332C110.855 15.5332 110.609 15.5811 110.395 15.6768C110.18 15.7725 110 15.9046 109.854 16.0732C109.709 16.2373 109.597 16.4264 109.52 16.6406C109.447 16.8548 109.41 17.0827 109.41 17.3242ZM120.259 20.7354V16.9277C120.259 16.6361 120.2 16.3831 120.081 16.1689C119.967 15.9502 119.794 15.7816 119.562 15.6631C119.329 15.5446 119.042 15.4854 118.7 15.4854C118.381 15.4854 118.101 15.54 117.859 15.6494C117.622 15.7588 117.436 15.9023 117.299 16.0801C117.167 16.2578 117.101 16.4492 117.101 16.6543H115.836C115.836 16.39 115.904 16.1279 116.041 15.8682C116.178 15.6084 116.374 15.3737 116.629 15.1641C116.889 14.9499 117.199 14.7812 117.559 14.6582C117.923 14.5306 118.329 14.4668 118.775 14.4668C119.313 14.4668 119.787 14.5579 120.197 14.7402C120.612 14.9225 120.936 15.1982 121.168 15.5674C121.405 15.932 121.523 16.39 121.523 16.9414V20.3867C121.523 20.6328 121.544 20.8949 121.585 21.1729C121.631 21.4508 121.697 21.6901 121.783 21.8906V22H120.464C120.4 21.8542 120.35 21.6605 120.313 21.4189C120.277 21.1729 120.259 20.945 120.259 20.7354ZM120.478 17.5156L120.491 18.4043H119.213C118.853 18.4043 118.532 18.4339 118.249 18.4932C117.966 18.5479 117.729 18.6322 117.538 18.7461C117.347 18.86 117.201 19.0036 117.101 19.1768C117 19.3454 116.95 19.5436 116.95 19.7715C116.95 20.0039 117.003 20.2158 117.107 20.4072C117.212 20.5986 117.369 20.7513 117.579 20.8652C117.793 20.9746 118.055 21.0293 118.365 21.0293C118.753 21.0293 119.094 20.9473 119.391 20.7832C119.687 20.6191 119.922 20.4186 120.095 20.1816C120.272 19.9447 120.368 19.7145 120.382 19.4912L120.922 20.0996C120.89 20.291 120.803 20.5029 120.662 20.7354C120.521 20.9678 120.332 21.1911 120.095 21.4053C119.862 21.6149 119.584 21.7904 119.261 21.9316C118.942 22.0684 118.582 22.1367 118.181 22.1367C117.679 22.1367 117.24 22.0387 116.861 21.8428C116.488 21.6468 116.196 21.3848 115.986 21.0566C115.781 20.724 115.679 20.3525 115.679 19.9424C115.679 19.5459 115.756 19.1973 115.911 18.8965C116.066 18.5911 116.289 18.3382 116.581 18.1377C116.873 17.9326 117.224 17.7777 117.634 17.6729C118.044 17.568 118.502 17.5156 119.008 17.5156H120.478ZM124.887 14.6035V22H123.615V14.6035H124.887ZM123.52 12.6416C123.52 12.4365 123.581 12.2633 123.704 12.1221C123.832 11.9808 124.019 11.9102 124.265 11.9102C124.506 11.9102 124.691 11.9808 124.818 12.1221C124.951 12.2633 125.017 12.4365 125.017 12.6416C125.017 12.8376 124.951 13.0062 124.818 13.1475C124.691 13.2842 124.506 13.3525 124.265 13.3525C124.019 13.3525 123.832 13.2842 123.704 13.1475C123.581 13.0062 123.52 12.8376 123.52 12.6416ZM128.291 11.5V22H127.02V11.5H128.291Z" fill="#C4C4C4"/>
</svg>
